<svg aria-hidden="true" style="width:0;height:0;position:absolute;overflow:hidden" xmlns="http://www.w3.org/2000/svg"><defs><symbol id="icon-untitled" viewBox="0 0 43 32"><path fill="#e1e1e1" style="fill:var(--color1,#e1e1e1)" d="M32.014 0c1.928 0 3.75.52 5.464 1.561s3.107 2.537 4.178 4.488c1.029 1.951 1.543 4.25 1.543 6.894s-.643 5.225-1.928 7.74c-.429.91-1.2 2.081-2.315 3.512a63.65 63.65 0 0 1-3.214 3.707L31.692 32l-2.893-4.813a22.225 22.225 0 0 0 5.306-4.646l.03-.037c1.542-1.821 2.314-3.49 2.314-5.008 0-.781-.171-1.41-.514-1.886a8.361 8.361 0 0 1-5.014 1.626c-1.328 0-2.593-.412-3.793-1.236a8.638 8.638 0 0 1-2.935-3.078l-.022-.043c-.771-1.258-1.157-2.558-1.157-3.902 0-1.518.45-2.97 1.35-4.358a10.313 10.313 0 0 1 3.364-3.356l.044-.025C29.142.414 30.556.002 32.014.002zM8.936 0c1.928 0 3.75.52 5.464 1.561s3.107 2.536 4.178 4.488c1.029 1.951 1.543 4.25 1.543 6.894 0 1.864-.236 3.534-.707 5.008-.472 1.518-1.286 3.1-2.443 4.748-1.114 1.561-2.164 2.862-3.15 3.902-.986 1.084-2.7 2.883-5.143 5.398l-2.893-4.813a22.225 22.225 0 0 0 5.306-4.646l.03-.037c1.542-1.821 2.314-3.49 2.314-5.008 0-.781-.172-1.41-.514-1.886a8.361 8.361 0 0 1-5.014 1.626c-1.328 0-2.593-.412-3.793-1.236a8.638 8.638 0 0 1-2.935-3.078l-.022-.043C.386 11.62 0 10.32 0 8.976c0-1.518.429-2.97 1.286-4.358A10.313 10.313 0 0 1 4.65 1.262l.045-.025C6.065.413 7.479.001 8.937.001z"/></symbol><symbol id="icon-points-red" viewBox="0 0 256 32"><path fill="#c7133e" style="fill:var(--color2,#c7133e)" d="M144 16c0 8.837-7.163 16-16 16s-16-7.163-16-16 7.163-16 16-16 16 7.163 16 16zM32 16c0 8.837-7.163 16-16 16S0 24.837 0 16 7.163 0 16 0s16 7.163 16 16zM256 16c0 8.837-7.163 16-16 16s-16-7.163-16-16 7.163-16 16-16 16 7.163 16 16z"/></symbol><symbol id="icon-points-white" viewBox="0 0 133 32"><path fill="#fff" style="fill:var(--color3,#fff)" d="M81.515 16c0 8.837-6.843 16-15.285 16s-15.285-7.163-15.285-16S57.788 0 66.23 0s15.285 7.163 15.285 16zM30.571 16c0 8.837-6.843 16-15.285 16S.001 24.837.001 16 6.844 0 15.286 0s15.285 7.163 15.285 16zM132.459 16c0 8.837-6.843 16-15.285 16s-15.285-7.163-15.285-16 6.843-16 15.285-16 15.285 7.163 15.285 16z"/></symbol><symbol id="icon-arrow-forward" viewBox="0 0 32 32"><path d="m16 5.333-1.88 1.88 7.44 7.453H5.333v2.667H21.56l-7.44 7.453 1.88 1.88 10.667-10.667z"/></symbol><symbol id="icon-Burger" viewBox="0 0 46 32"><path fill="none" stroke="#d41443" style="stroke:var(--color4,#d41443)" stroke-width="2.286" d="M0 2.286h45.714M0 16h45.714M0 29.714h45.714"/></symbol><symbol id="icon-close" viewBox="0 0 32 32"><path fill="none" stroke="#fff" style="stroke:var(--color3,#fff)" stroke-width="2" d="m2.52 2 26.96 28M2 29.48 30 2.52"/></symbol><symbol id="icon-facebook" viewBox="0 0 16 32"><path fill="#fff" style="fill:var(--color3,#fff)" d="M14.143 15.971H10.11v14.865H3.998V15.971H1.092v-5.222h2.906V7.367c0-2.417 1.142-6.204 6.167-6.204l4.527.019v5.072h-3.284c-.538 0-1.297.272-1.297 1.425v3.073h4.567l-.534 5.219z"/></symbol><symbol id="icon-github" viewBox="0 0 32 32"><path fill="#fff" style="fill:var(--color3,#fff)" d="M16 0C7.211 0 0 7.211 0 16c0 7.499 5.262 14.312 12.25 16v-5.293a3.921 3.921 0 0 1-2.062-.06l.028.007c-.946-.278-1.714-.909-2.285-1.869-.363-.613-1.008-1.28-1.68-1.23l-.165-1.867c1.454-.125 2.71.886 3.456 2.139.333.558.715.885 1.205 1.029.472.141.981.074 1.573-.136.149-1.186.693-1.629 1.104-2.256-4.168-.621-5.829-2.832-6.488-4.576-.874-2.318-.405-5.213 1.139-7.043.03-.035.085-.128.064-.192-.709-2.141.154-3.91.186-4.098.818.24.95-.243 3.552 1.336l.448.27c.189.112.128.048.317.032a13.246 13.246 0 0 1 3.349-.469h.01c1.136.014 2.272.176 3.403.483l.146.016c-.013-.003.04-.01.128-.062 3.248-1.968 3.131-1.325 4.003-1.608.032.189.882 1.987.182 4.099-.096.291 2.816 2.957 1.202 7.235-.659 1.744-2.32 3.957-6.486 4.578.534.816 1.176 1.248 1.173 2.928v6.606c6.986-1.688 12.25-8.501 12.25-16 0-8.789-7.211-16-16-16z"/></symbol><symbol id="icon-heart84" viewBox="0 0 46 52" fill="#FFA5BA"><mask id="a" maskUnits="userSpaceOnUse" x="0" y="0" width="46" height="52" fill="#000"><path fill="#fff" d="M0 0h46v52H0z"/><path d="M10.575 1.108c-4.566.957-8.11 4.708-9.267 9.81-.423 1.782-.404 5.214.02 7.165.944 4.332 3.043 8.177 6.357 11.516 2.967 3.001 5.567 4.82 9.69 6.715l2.157 1.013V51h2.312V38.077l.578.169a2.41 2.41 0 0 0 1.156 0l.578-.17V51h2.312V37.308l2.06-.938c3.989-1.838 6.878-3.826 9.69-6.677C42.709 25.135 45 19.958 45 14.33c.02-6.17-3.217-11.178-8.303-12.885-1.079-.375-1.638-.432-3.68-.413-2.138.019-2.62.094-4.238.6-1.907.62-3.776 1.595-5.008 2.607l-.713.6-1.04-.768c-2.678-1.97-5.414-2.926-8.63-3.058-1.118-.037-2.39 0-2.813.094Zm4.392 2.326c.809.15 1.907.469 2.485.694 1.233.506 3.294 1.8 4.103 2.57 1.252 1.181 1.6 1.162 3.025-.113 2.234-2.026 5.837-3.414 8.803-3.414 4.027 0 7.706 3.151 8.881 7.597.212.787.405 2.063.424 2.832.077 1.688.02 1.744-2.6 2.738-2.12.807-3.892 1.2-6.936 1.538-1.945.225-2.35.338-2.947.77-1.233.918-1.426 1.594-1.426 5.42 0 2.87-.038 3.414-.327 3.714-.405.45-1.118.431-1.6-.038-.365-.356-.384-.619-.384-4.408 0-4.201-.116-4.914-.906-5.758-.173-.187-1.541-.919-3.024-1.65-1.676-.788-3.352-1.763-4.354-2.532-4.835-3.62-6.974-4.652-10.942-5.271-1.137-.188-2.1-.356-2.139-.375-.173-.131.867-1.463 1.811-2.288 2.235-1.989 4.778-2.626 8.053-2.026Zm-6.377 7.24c1.965.488 4.18 1.594 6.203 3.095.848.619 1.927 1.406 2.409 1.763 1.29.956 3.428 2.157 5.047 2.832.79.338 1.54.732 1.676.9.173.207.23 1.388.23 4.333 0 3.545.059 4.145.367 4.802.636 1.35 1.657 1.969 3.217 1.969 1.002 0 1.695-.3 2.427-1.07.829-.843.925-1.368.925-4.95 0-4.07-.039-3.996 2.235-4.183 2.311-.207 5.182-.826 7.089-1.52.963-.356 1.792-.6 1.83-.544.212.207-1.233 3.883-2.08 5.308-1.349 2.308-2.408 3.62-4.45 5.534-2.967 2.775-7.051 5.157-11.212 6.583L23 36.051l-1.483-.525c-4.45-1.5-8.38-3.883-11.54-6.94-4.007-3.845-6.106-7.915-6.627-12.735-.192-1.801.097-4.896.54-5.627.154-.263 2.909.018 4.7.45Z"/></mask><path d="M10.575 1.108c-4.566.957-8.11 4.708-9.267 9.81-.423 1.782-.404 5.214.02 7.165.944 4.332 3.043 8.177 6.357 11.516 2.967 3.001 5.567 4.82 9.69 6.715l2.157 1.013V51h2.312V38.077l.578.169a2.41 2.41 0 0 0 1.156 0l.578-.17V51h2.312V37.308l2.06-.938c3.989-1.838 6.878-3.826 9.69-6.677C42.709 25.135 45 19.958 45 14.33c.02-6.17-3.217-11.178-8.303-12.885-1.079-.375-1.638-.432-3.68-.413-2.138.019-2.62.094-4.238.6-1.907.62-3.776 1.595-5.008 2.607l-.713.6-1.04-.768c-2.678-1.97-5.414-2.926-8.63-3.058-1.118-.037-2.39 0-2.813.094Zm4.392 2.326c.809.15 1.907.469 2.485.694 1.233.506 3.294 1.8 4.103 2.57 1.252 1.181 1.6 1.162 3.025-.113 2.234-2.026 5.837-3.414 8.803-3.414 4.027 0 7.706 3.151 8.881 7.597.212.787.405 2.063.424 2.832.077 1.688.02 1.744-2.6 2.738-2.12.807-3.892 1.2-6.936 1.538-1.945.225-2.35.338-2.947.77-1.233.918-1.426 1.594-1.426 5.42 0 2.87-.038 3.414-.327 3.714-.405.45-1.118.431-1.6-.038-.365-.356-.384-.619-.384-4.408 0-4.201-.116-4.914-.906-5.758-.173-.187-1.541-.919-3.024-1.65-1.676-.788-3.352-1.763-4.354-2.532-4.835-3.62-6.974-4.652-10.942-5.271-1.137-.188-2.1-.356-2.139-.375-.173-.131.867-1.463 1.811-2.288 2.235-1.989 4.778-2.626 8.053-2.026Zm-6.377 7.24c1.965.488 4.18 1.594 6.203 3.095.848.619 1.927 1.406 2.409 1.763 1.29.956 3.428 2.157 5.047 2.832.79.338 1.54.732 1.676.9.173.207.23 1.388.23 4.333 0 3.545.059 4.145.367 4.802.636 1.35 1.657 1.969 3.217 1.969 1.002 0 1.695-.3 2.427-1.07.829-.843.925-1.368.925-4.95 0-4.07-.039-3.996 2.235-4.183 2.311-.207 5.182-.826 7.089-1.52.963-.356 1.792-.6 1.83-.544.212.207-1.233 3.883-2.08 5.308-1.349 2.308-2.408 3.62-4.45 5.534-2.967 2.775-7.051 5.157-11.212 6.583L23 36.051l-1.483-.525c-4.45-1.5-8.38-3.883-11.54-6.94-4.007-3.845-6.106-7.915-6.627-12.735-.192-1.801.097-4.896.54-5.627.154-.263 2.909.018 4.7.45Z"/><path d="M10.575 1.108c-4.566.957-8.11 4.708-9.267 9.81-.423 1.782-.404 5.214.02 7.165.944 4.332 3.043 8.177 6.357 11.516 2.967 3.001 5.567 4.82 9.69 6.715l2.157 1.013V51h2.312V38.077l.578.169a2.41 2.41 0 0 0 1.156 0l.578-.17V51h2.312V37.308l2.06-.938c3.989-1.838 6.878-3.826 9.69-6.677C42.709 25.135 45 19.958 45 14.33c.02-6.17-3.217-11.178-8.303-12.885-1.079-.375-1.638-.432-3.68-.413-2.138.019-2.62.094-4.238.6-1.907.62-3.776 1.595-5.008 2.607l-.713.6-1.04-.768c-2.678-1.97-5.414-2.926-8.63-3.058-1.118-.037-2.39 0-2.813.094Zm4.392 2.326c.809.15 1.907.469 2.485.694 1.233.506 3.294 1.8 4.103 2.57 1.252 1.181 1.6 1.162 3.025-.113 2.234-2.026 5.837-3.414 8.803-3.414 4.027 0 7.706 3.151 8.881 7.597.212.787.405 2.063.424 2.832.077 1.688.02 1.744-2.6 2.738-2.12.807-3.892 1.2-6.936 1.538-1.945.225-2.35.338-2.947.77-1.233.918-1.426 1.594-1.426 5.42 0 2.87-.038 3.414-.327 3.714-.405.45-1.118.431-1.6-.038-.365-.356-.384-.619-.384-4.408 0-4.201-.116-4.914-.906-5.758-.173-.187-1.541-.919-3.024-1.65-1.676-.788-3.352-1.763-4.354-2.532-4.835-3.62-6.974-4.652-10.942-5.271-1.137-.188-2.1-.356-2.139-.375-.173-.131.867-1.463 1.811-2.288 2.235-1.989 4.778-2.626 8.053-2.026Zm-6.377 7.24c1.965.488 4.18 1.594 6.203 3.095.848.619 1.927 1.406 2.409 1.763 1.29.956 3.428 2.157 5.047 2.832.79.338 1.54.732 1.676.9.173.207.23 1.388.23 4.333 0 3.545.059 4.145.367 4.802.636 1.35 1.657 1.969 3.217 1.969 1.002 0 1.695-.3 2.427-1.07.829-.843.925-1.368.925-4.95 0-4.07-.039-3.996 2.235-4.183 2.311-.207 5.182-.826 7.089-1.52.963-.356 1.792-.6 1.83-.544.212.207-1.233 3.883-2.08 5.308-1.349 2.308-2.408 3.62-4.45 5.534-2.967 2.775-7.051 5.157-11.212 6.583L23 36.051l-1.483-.525c-4.45-1.5-8.38-3.883-11.54-6.94-4.007-3.845-6.106-7.915-6.627-12.735-.192-1.801.097-4.896.54-5.627.154-.263 2.909.018 4.7.45Z" stroke="#FFA5BA"/></symbol><symbol id="icon-house-ellipse" viewBox="0 0 32 32"><path fill="#d9d9d9" style="fill:var(--color6,#d9d9d9)" d="M32 16c0 8.837-7.163 16-16 16S0 24.837 0 16 7.163 0 16 0s16 7.163 16 16z"/></symbol><symbol id="icon-house-red" viewBox="0 0 32 32"><path fill="#d31342" style="fill:var(--color7,#d31342)" d="M31.6 16.765a1.357 1.357 0 0 0-.122-2.032l-.003-.002L17.174 3.056a1.869 1.869 0 0 0-1.146-.389c-.448 0-.86.157-1.183.419l.004-.003L.5 15.35a1.348 1.348 0 0 0-.07 2.037l.001.001.36.347c.595.581 1.56.651 2.152.155l1.072-.896v13.117c0 .803.701 1.456 1.563 1.456h5.592c.864 0 1.563-.653 1.563-1.456v-9.176h7.133v9.208a1.42 1.42 0 0 0 1.421 1.421l.048-.001h-.002 5.928c.861 0 1.56-.651 1.56-1.456V17.179s.299.24.664.541c.363.299 1.131.059 1.709-.536l.408-.419z"/></symbol><symbol id="icon-logo-desctop" viewBox="0 0 127 32"><path fill="#fff" style="fill:var(--color3,#fff)" d="M31.36 16.32C31.36 24.98 24.483 32 16 32S.64 24.98.64 16.32 7.517.64 16 .64s15.36 7.02 15.36 15.68z"/><path fill="#d41443" style="fill:var(--color4,#d41443)" d="M11.849.561C4.444 2.804 0 8.635 0 16.003c0 6.022 3.091 11.277 8.179 13.904 2.64 1.345 3.027.384.579-1.474-1.738-1.409-2.061-2.05-2.061-4.421 0-1.666-.386-3.011-.966-3.524-1.158-.961-1.288-3.46-.128-4.357.45-.384.901-1.666.965-2.819.323-4.228 4.895-8.201 9.467-8.201s9.144 3.972 9.466 8.201c.064 1.153.515 2.435.966 2.819 1.158.897 1.03 3.396-.129 4.357-.579.513-.966 1.858-.966 3.524 0 2.371-.321 3.012-2.06 4.421-2.705 2.115-1.932 2.883 1.094 1.025 4.251-2.627 7.406-8.33 7.406-13.391 0-10.124-10.561-18.325-19.964-15.506z"/><path fill="#d41443" style="fill:var(--color4,#d41443)" d="M12.687 7.994c-1.16.513-2.125 1.154-2.125 1.538 0 .705 3.478 1.987 5.474 1.987s5.474-1.281 5.474-1.987c0-.768-3.993-2.499-5.603-2.499-.644.064-2.125.448-3.22.961zm33.164 3.332c-.966.256-1.158 1.089-1.158 5.702v5.382h4.572l-.193-5.574c-.193-5.83-.451-6.28-3.22-5.51zm7.535.32c-2.125 1.154-2.898 2.563-2.898 5.318 0 3.78 2.061 5.574 5.86 5.318 2.576-.192 2.833-.385 3.027-1.987s.064-1.73-1.932-1.602c-2.061.192-2.125.064-2.125-2.051s.129-2.243 1.997-2.05c1.545.128 2.125-.128 2.382-1.089.129-.641 0-1.538-.387-1.923-.901-.897-4.25-.897-5.924.064zm7.664.064c-.194.513-.258 3.012-.129 5.638l.193 4.742H65.3c3.864 0 4.186-.128 4.379-1.474.193-1.217-.064-1.409-2.06-1.409-1.288 0-2.319-.32-2.319-.641 0-.385.902-.641 1.932-.641 1.481 0 1.932-.256 1.932-1.281s-.451-1.281-1.932-1.281c-1.03 0-1.932-.32-1.932-.641 0-.385.837-.641 1.868-.641 1.804 0 3.027-1.409 2.254-2.627-.58-.961-7.985-.705-8.371.256zm12.943-.192c-2.125.833-2.962 2.307-3.027 4.998-.065 4.613 1.803 6.215 6.633 5.766 1.868-.128 2.189-.448 2.189-1.794 0-1.409-.257-1.602-2.061-1.409-1.546.128-2.125-.064-2.447-1.089-.58-1.987.644-3.588 2.705-3.588 1.224 0 1.868-.384 1.996-1.217.451-2.051-2.833-3.011-5.989-1.666zm7.921-.256c-.323.256-.515 2.883-.515 5.83v5.382l2.06-.192c1.61-.128 2.19-.577 2.512-1.795l.386-1.602.515 1.73c.387 1.474.837 1.795 2.512 1.795 2.769 0 3.091-.449 1.932-2.691-.708-1.41-.837-2.115-.322-2.627.837-.833.902-3.652.129-4.87-.644-1.025-8.371-1.858-9.208-.961zm5.28 3.46c0 .705-.257 1.281-.644 1.281-.322 0-.644-.576-.644-1.281s.322-1.282.644-1.282c.387 0 .644.577.644 1.282zm6.247-3.396c-.258.192-.451 2.819-.451 5.766v5.318h4.186c4.057 0 4.186-.064 4.186-1.602 0-1.346-.322-1.602-1.932-1.602-1.03 0-1.932-.32-1.932-.641 0-.385.708-.641 1.61-.641 1.159 0 1.61-.321 1.61-1.282s-.451-1.281-1.61-1.281c-.902 0-1.61-.32-1.61-.641 0-.384.902-.641 1.932-.641 1.61 0 1.932-.256 1.932-1.602 0-1.538-.193-1.602-3.735-1.602-2.061 0-3.992.192-4.186.448zm13.009-.064c-1.16.32-4.122 8.842-3.542 10.252.515 1.281 3.413 1.153 4.186-.192.579-1.089.644-1.089 1.803 0 1.482 1.281 4.701 1.474 4.701.256 0-.384-.644-2.947-1.482-5.574-1.288-4.228-1.674-4.805-3.027-4.933-.902 0-2.061.064-2.64.192zm1.803 5.83c-.193.641-.322.256-.322-.769 0-1.089.129-1.538.322-1.153.129.448.129 1.345 0 1.922zm7.47-5.766c-.58.192-.837 1.986-.837 5.702v5.382h1.868c1.61 0 1.932-.321 2.189-1.795.257-1.666.257-1.666.772-.32.258.833.902 1.474 1.352 1.474.515 0 1.224-.641 1.546-1.474.515-1.346.58-1.346.58.384.065 1.602.257 1.795 2.061 1.602l1.996-.192.065-5.318c.129-4.933.064-5.318-1.288-5.638-2.061-.512-3.799.705-4.379 3.076l-.451 2.115-.708-2.243c-.902-3.012-2.254-3.78-4.765-2.755zm-106.707.641c-.193.256-.387 1.089-.387 1.922 0 1.474.064 1.474 7.406 1.474 7.341 0 7.405 0 7.405-1.474 0-2.179-.579-2.435-2.64-1.409-2.319 1.217-7.213 1.217-9.531 0-1.03-.513-1.997-.705-2.254-.513zm-1.868 5.702c-1.03 1.089.708 1.538 5.731 1.538h5.409v2.243c0 1.217.322 2.243.644 2.243.386 0 .644-.961.644-2.179 0-2.115.129-2.243 2.576-2.435 1.416-.128 2.576-.512 2.576-.832 0-.705-16.872-1.282-17.581-.577z"/><path fill="#d41443" style="fill:var(--color4,#d41443)" d="M8.629 23.308c0 3.524 1.224 4.229 7.406 4.229s7.405-.705 7.405-4.229c0-1.538-.322-2.179-.966-2.179-.579 0-.965.577-.965 1.538 0 3.588-4.895 3.908-5.603.384-.322-1.858-.515-1.922-3.799-1.922H8.629v2.179zm3.993 7.24c.387 2.051 6.955 1.859 6.955-.128 0-.705-.837-.961-3.606-.961-3.027 0-3.542.192-3.348 1.089z"/></symbol><symbol id="icon-stacan16kg" viewBox="0 0 32 32"><path fill="#ffa5ba" style="fill:var(--color5,#ffa5ba)" d="M29.626 21.411c-1.292-.458-2.381-.344-3.242.018.145-.877.47-1.832 1.169-2.481a1.065 1.065 0 1 0-1.448-1.561c-1.229 1.14-1.706 2.749-1.874 4.081a3.929 3.929 0 0 0-1.035-.308l-.023-.003 1.89-9.83a1.064 1.064 0 0 0-1.045-1.266h-.205c.094-.5.141-.997.138-1.47-.016-1.994-.903-3.495-2.374-4.017-1.409-.5-2.589-.35-3.507.066.146-.976.495-2.063 1.282-2.794A1.065 1.065 0 1 0 17.904.285c-1.32 1.226-1.815 2.966-1.981 4.387-.735-.348-1.644-.526-2.709-.33-1.094-1.571-2.612-2.295-4.09-1.941-1.451.348-2.358 1.115-2.9 1.962-.41-.899-.712-2.001-.452-3.036A1.065 1.065 0 0 0 3.708.799l-.002.007c-.439 1.746.095 3.475.73 4.758-1.016.138-2.118.65-3.049 1.866-.578.755-.773 1.698-.596 2.7a1.066 1.066 0 0 0-.672 1.204l-.001-.007 3.809 19.809c.096.502.535.864 1.046.864H20.21c.51 0 .949-.362 1.046-.864l.037-.195c.287.198.595.364.927.486 1.267.472 2.447.278 3.044.118.316.084.795.179 1.364.179.506 0 1.084-.075 1.68-.297 2.36-.879 3.615-3.839 3.596-6.178-.015-1.904-.865-3.34-2.275-3.839zm-6.951-9.22c-.491 4.705-4.452 7.909-9.971 7.909s-9.481-3.204-9.971-7.909h19.942zm-6.643-4.676a1.048 1.048 0 0 0 1.862 0 2.66 2.66 0 0 1 .76-.771l.01-.006c.629-.408 1.35-.46 2.203-.157.851.301.952 1.518.956 2.027a5.74 5.74 0 0 1-.19 1.453h-7.126c.236-1.19.094-2.492-.289-3.669.392.022.751.149 1.055.351l-.008-.005c.31.205.567.465.763.767l.006.01zM3.077 8.724c.55-.719 1.183-1.069 1.933-1.069h.002c.57 0 1.016.207 1.066.232.341.189.749.172 1.078-.037.332-.211.51-.592.481-.983-.006-.077-.115-1.894 1.983-2.397.877-.211 1.626.754 1.906 1.178.808 1.221 1.222 3.108.777 4.413H2.955c-.141-.443-.179-.943.122-1.336zM5.852 29.87 3.741 18.893c.138.132.28.262.428.388 2.208 1.901 5.239 2.948 8.535 2.948s6.328-1.047 8.535-2.948l.152-.134-.431 2.243-.061.02c-1.411.5-2.261 1.935-2.276 3.839-.01 1.165.297 2.483.898 3.622l-.192.998H5.852zm21.71-.438c-.943.351-1.881.017-1.916.004a1.034 1.034 0 0 0-.775.003l.007-.003c-.01.004-.96.352-1.917-.004-1.338-.499-2.223-2.556-2.21-4.166.004-.465.095-1.578.858-1.849.279-.107.601-.17.937-.175h.002c1.107 0 1.658.812 1.782 1.024a1.046 1.046 0 0 0 1.862 0c.156-.265.977-1.468 2.721-.849.763.271.854 1.383.858 1.85.013 1.609-.872 3.667-2.21 4.165z"/></symbol><symbol id="icon-stacan721" viewBox="0 0 32 32"><path fill="#ffa5ba" style="fill:var(--color5,#ffa5ba)" d="M8.093.144c-.349.188-.552.563-.552 1.006.006.813.209 1.556.614 2.2l.177.294-.337.381c-.381.425-.473.581-.644 1.088-.141.412-.154 1.162-.031 1.581.429 1.437 1.854 2.269 3.247 1.9.473-.125.762-.282 1.203-.657l.375-.312.35.175c.196.1.528.243.742.324l.381.138v.7c0 1.106.227 1.763.81 2.356s1.498.9 2.291.762c.564-.1 1.117-.381 1.491-.762.584-.594.811-1.251.811-2.356v-.7l.387-.138a9.56 9.56 0 0 0 .737-.325l.349-.175.374.312c.442.375.731.531 1.203.657 1.394.369 2.819-.463 3.248-1.9.123-.419.111-1.169-.031-1.581-.172-.507-.264-.663-.644-1.088l-.337-.381.178-.294c.405-.643.608-1.388.614-2.2 0-.444-.204-.819-.553-1.006l-.264-.144H8.356l-.264.144zm14.736 1.955c0 .019-.179.313-.399.662-.651 1.032-.626 1.256.239 2.17.314.331.602.662.645.737.233.463-.234 1.038-.749.919-.124-.026-.394-.243-.787-.631-.786-.775-1.056-.863-1.658-.518-.694.399-1.578.806-2.008.924-.608.175-.817.307-.976.637-.129.256-.141.363-.141 1.363 0 1.231-.05 1.431-.399 1.6-.252.125-.301.125-.553 0-.35-.169-.399-.369-.399-1.6 0-1-.013-1.107-.135-1.363-.166-.324-.374-.462-.982-.637-.528-.15-1.308-.493-1.738-.774-.405-.262-.762-.363-1.043-.313-.185.038-.369.181-.86.662-.405.394-.694.625-.817.65-.509.119-.976-.463-.742-.919.043-.075.332-.406.644-.737.865-.913.89-1.137.239-2.169-.221-.349-.399-.643-.399-.662 0-.025 2.929-.037 6.508-.037s6.508.013 6.508.037zM6.245 13.206c-.314.212-.485.512-.485.844 0 .225 3.119 16.925 3.229 17.275.055.194.282.425.522.55.227.125.387.125 6.809.125s6.582 0 6.809-.125c.239-.125.467-.356.522-.55.111-.35 3.229-17.05 3.229-17.275 0-.331-.172-.631-.485-.844l-.209-.144H6.454l-.209.144zm18.21 2.275c-.061.5-.418 1.587-.682 2.081-1.283 2.375-3.715 3.819-6.729 3.987-2.278.132-4.205-.331-5.82-1.393a7.057 7.057 0 0 1-2.247-2.402l-.018-.035c-.307-.544-.712-1.713-.774-2.238l-.043-.356h16.356l-.043.356zM10.15 21.919c2.634 1.775 6.569 2.244 9.885 1.169a10.708 10.708 0 0 0 3.18-1.687c.276-.219.294-.219.264-.082-.018.081-.38 1.994-.804 4.244s-.78 4.156-.798 4.232l-.031.143H10.794l-.031-.143c-.019-.075-.374-1.981-.798-4.232s-.786-4.163-.804-4.243c-.031-.138-.013-.138.264.081.16.125.492.356.724.518z"/></symbol><symbol id="icon-telegram" viewBox="0 0 44 32"><path fill="#fff" style="fill:var(--color3,#fff)" d="m17.344 21.048-.676 8.86c.966 0 1.384-.388 1.886-.852l4.526-4.04 9.38 6.414c1.722.894 2.934.422 3.4-1.478L42.016 3.02c.548-2.374-.92-3.302-2.594-2.72L3.228 13.234c-2.47.896-2.434 2.18-.42 2.766l9.252 2.684L33.552 6.132c1.012-.626 1.932-.28 1.176.346l-17.386 14.57z"/></symbol><symbol id="icon-single-right" viewBox="0 0 32 32"><path d="m19.609 16.943-5.333 5.333a1.333 1.333 0 0 1-1.884-1.886l4.39-4.39-4.391-4.391a1.333 1.333 0 1 1 1.885-1.885l5.334 5.334a1.332 1.332 0 0 1 0 1.886z"/></symbol></defs></svg>